<svg data-v-fde0c5aa="" xmlns="http://www.w3.org/2000/svg" viewBox="0 0 300 300" class="font"><!----><defs data-v-fde0c5aa=""><!----></defs><rect data-v-fde0c5aa="" fill="transparent" x="0" y="0" width="300px" height="300px" class="logo-background-square"></rect><defs data-v-fde0c5aa=""><linearGradient data-v-fde0c5aa="" gradientTransform="rotate(25)" id="6914486d-f382-4661-b802-2505196421d1" x1="0%" y1="0%" x2="100%" y2="0%"><stop data-v-fde0c5aa="" offset="0%" stop-color="#122663" stop-opacity="1"></stop><stop data-v-fde0c5aa="" offset="100%" stop-color="#5DD7AD" stop-opacity="1"></stop></linearGradient></defs><g data-v-fde0c5aa="" id="c9a37a4e-a42c-4dd4-b2c8-f3c734dd03e3" fill="url(#6914486d-f382-4661-b802-2505196421d1)" transform="matrix(3.4412638659441517,0,0,3.4412638659441517,38.76114495903243,118.58126051010849)"><path d="M4.19 14.11L4.19 14.11Q3.05 14.11 2.18 13.73L2.18 13.73L2.18 13.73Q1.32 13.34 0.84 12.63L0.84 12.63L0.84 12.63Q0.36 11.91 0.36 10.98L0.36 10.98L0.36 10.84L0.36 10.84Q0.36 10.57 0.63 10.57L0.63 10.57L2.69 10.57L2.69 10.57Q2.95 10.57 2.95 10.71L2.95 10.71L2.95 10.86L2.95 10.86Q2.95 11.24 3.36 11.55L3.36 11.55L3.36 11.55Q3.77 11.86 4.38 11.86L4.38 11.86L4.38 11.86Q4.90 11.86 5.12 11.64L5.12 11.64L5.12 11.64Q5.35 11.42 5.35 11.16L5.35 11.16L5.35 11.16Q5.35 10.85 5.07 10.70L5.07 10.70L5.07 10.70Q4.79 10.54 4.05 10.32L4.05 10.32L3.64 10.21L3.64 10.21Q2.25 9.79 1.32 9.09L1.32 9.09L1.32 9.09Q0.38 8.39 0.38 7.06L0.38 7.06L0.38 7.06Q0.38 6.17 0.85 5.49L0.85 5.49L0.85 5.49Q1.33 4.82 2.16 4.45L2.16 4.45L2.16 4.45Q3.00 4.09 4.03 4.09L4.03 4.09L4.03 4.09Q5.12 4.09 6.01 4.49L6.01 4.49L6.01 4.49Q6.90 4.90 7.41 5.64L7.41 5.64L7.41 5.64Q7.92 6.38 7.92 7.34L7.92 7.34L7.92 7.41L7.92 7.41Q7.92 7.67 7.66 7.67L7.66 7.67L5.60 7.67L5.60 7.67Q5.33 7.67 5.33 7.56L5.33 7.56L5.33 7.45L5.33 7.45Q5.33 7.03 4.96 6.68L4.96 6.68L4.96 6.68Q4.58 6.34 3.93 6.34L3.93 6.34L3.93 6.34Q3.49 6.34 3.23 6.52L3.23 6.52L3.23 6.52Q2.97 6.71 2.97 7.03L2.97 7.03L2.97 7.03Q2.97 7.28 3.16 7.46L3.16 7.46L3.16 7.46Q3.35 7.63 3.74 7.79L3.74 7.79L3.74 7.79Q4.13 7.95 4.94 8.20L4.94 8.20L4.94 8.20Q5.05 8.25 5.93 8.50L5.93 8.50L5.93 8.50Q6.80 8.76 7.39 9.44L7.39 9.44L7.39 9.44Q7.98 10.12 7.98 11.09L7.98 11.09L7.98 11.09Q7.98 12.00 7.50 12.68L7.50 12.68L7.50 12.68Q7.03 13.37 6.17 13.74L6.17 13.74L6.17 13.74Q5.31 14.11 4.19 14.11L4.19 14.11ZM13.86 4.47L13.86 4.47Q13.86 4.20 14.13 4.20L14.13 4.20L16.23 4.20L16.23 4.20Q16.49 4.20 16.49 4.47L16.49 4.47L16.49 13.73L16.49 13.73Q16.49 14 16.23 14L16.23 14L14.13 14L14.13 14Q13.86 14 13.86 13.73L13.86 13.73L13.86 10.28L13.86 10.28Q13.86 10.16 13.75 10.16L13.75 10.16L11.65 10.16L11.65 10.16Q11.54 10.16 11.54 10.28L11.54 10.28L11.54 13.73L11.54 13.73Q11.54 14 11.27 14L11.27 14L9.17 14L9.17 14Q8.90 14 8.90 13.73L8.90 13.73L8.90 4.47L8.90 4.47Q8.90 4.20 9.17 4.20L9.17 4.20L11.27 4.20L11.27 4.20Q11.54 4.20 11.54 4.47L11.54 4.47L11.54 7.80L11.54 7.80Q11.54 7.91 11.65 7.91L11.65 7.91L13.75 7.91L13.75 7.91Q13.86 7.91 13.86 7.80L13.86 7.80L13.86 4.47ZM24.07 14L24.07 14Q23.83 14 23.77 13.78L23.77 13.78L23.49 12.77L23.49 12.77Q23.46 12.67 23.37 12.67L23.37 12.67L20.45 12.67L20.45 12.67Q20.36 12.67 20.33 12.77L20.33 12.77L20.05 13.78L20.05 13.78Q19.99 14 19.75 14L19.75 14L17.49 14L17.49 14Q17.35 14 17.28 13.92L17.28 13.92L17.28 13.92Q17.22 13.83 17.26 13.69L17.26 13.69L20.17 4.42L20.17 4.42Q20.24 4.20 20.47 4.20L20.47 4.20L23.35 4.20L23.35 4.20Q23.58 4.20 23.65 4.42L23.65 4.42L26.56 13.69L26.56 13.69Q26.57 13.73 26.57 13.79L26.57 13.79L26.57 13.79Q26.57 14 26.33 14L26.33 14L24.07 14ZM20.94 10.53L20.94 10.56L20.94 10.56Q20.94 10.65 21.04 10.65L21.04 10.65L22.78 10.65L22.78 10.65Q22.83 10.65 22.86 10.62L22.86 10.62L22.86 10.62Q22.89 10.58 22.88 10.53L22.88 10.53L21.98 7.29L21.98 7.29Q21.97 7.22 21.92 7.22L21.92 7.22L21.92 7.22Q21.87 7.22 21.84 7.29L21.84 7.29L20.94 10.53ZM27.72 14L27.72 14Q27.45 14 27.45 13.73L27.45 13.73L27.45 4.47L27.45 4.47Q27.45 4.20 27.72 4.20L27.72 4.20L31.26 4.20L31.26 4.20Q32.40 4.20 33.27 4.59L33.27 4.59L33.27 4.59Q34.15 4.98 34.62 5.70L34.62 5.70L34.62 5.70Q35.10 6.41 35.10 7.35L35.10 7.35L35.10 10.85L35.10 10.85Q35.10 11.79 34.62 12.50L34.62 12.50L34.62 12.50Q34.15 13.22 33.27 13.61L33.27 13.61L33.27 13.61Q32.40 14 31.26 14L31.26 14L27.72 14ZM30.09 11.63L30.09 11.63Q30.09 11.75 30.20 11.75L30.20 11.75L31.36 11.75L31.36 11.75Q31.84 11.75 32.14 11.38L32.14 11.38L32.14 11.38Q32.45 11.00 32.47 10.40L32.47 10.40L32.47 7.80L32.47 7.80Q32.47 7.20 32.16 6.83L32.16 6.83L32.16 6.83Q31.85 6.45 31.35 6.45L31.35 6.45L30.20 6.45L30.20 6.45Q30.09 6.45 30.09 6.57L30.09 6.57L30.09 11.63ZM36.37 14L36.37 14Q36.11 14 36.11 13.73L36.11 13.73L36.11 4.47L36.11 4.47Q36.11 4.20 36.37 4.20L36.37 4.20L38.47 4.20L38.47 4.20Q38.74 4.20 38.74 4.47L38.74 4.47L38.74 13.73L38.74 13.73Q38.74 14 38.47 14L38.47 14L36.37 14ZM44.10 4.20L44.10 4.20Q45.09 4.20 45.85 4.60L45.85 4.60L45.85 4.60Q46.61 5.00 47.02 5.73L47.02 5.73L47.02 5.73Q47.43 6.47 47.43 7.42L47.43 7.42L47.43 7.42Q47.43 8.36 47.00 9.07L47.00 9.07L47.00 9.07Q46.56 9.79 45.78 10.18L45.78 10.18L45.78 10.18Q45.00 10.57 43.97 10.57L43.97 10.57L42.53 10.57L42.53 10.57Q42.42 10.57 42.42 10.68L42.42 10.68L42.42 13.73L42.42 13.73Q42.42 14 42.15 14L42.15 14L40.05 14L40.05 14Q39.79 14 39.79 13.73L39.79 13.73L39.79 4.47L39.79 4.47Q39.79 4.20 40.05 4.20L40.05 4.20L44.10 4.20ZM43.67 8.47L43.67 8.47Q44.18 8.47 44.50 8.20L44.50 8.20L44.50 8.20Q44.81 7.92 44.81 7.48L44.81 7.48L44.81 7.48Q44.81 7.01 44.50 6.73L44.50 6.73L44.50 6.73Q44.18 6.45 43.67 6.45L43.67 6.45L42.53 6.45L42.53 6.45Q42.42 6.45 42.42 6.57L42.42 6.57L42.42 8.36L42.42 8.36Q42.42 8.47 42.53 8.47L42.53 8.47L43.67 8.47ZM55.50 4.20L55.50 4.20Q55.76 4.20 55.76 4.47L55.76 4.47L55.76 6.20L55.76 6.20Q55.76 6.47 55.50 6.47L55.50 6.47L53.24 6.47L53.24 6.47Q53.13 6.47 53.13 6.58L53.13 6.58L53.13 13.73L53.13 13.73Q53.13 14 52.86 14L52.86 14L50.76 14L50.76 14Q50.50 14 50.50 13.73L50.50 13.73L50.50 6.58L50.50 6.58Q50.50 6.47 50.39 6.47L50.39 6.47L48.20 6.47L48.20 6.47Q47.94 6.47 47.94 6.20L47.94 6.20L47.94 4.47L47.94 4.47Q47.94 4.20 48.20 4.20L48.20 4.20L55.50 4.20ZM60.35 14.17L60.35 14.17Q59.19 14.17 58.30 13.70L58.30 13.70L58.30 13.70Q57.41 13.23 56.92 12.38L56.92 12.38L56.92 12.38Q56.43 11.54 56.43 10.42L56.43 10.42L56.43 7.78L56.43 7.78Q56.43 6.69 56.92 5.85L56.92 5.85L56.92 5.85Q57.41 5.01 58.30 4.55L58.30 4.55L58.30 4.55Q59.19 4.09 60.35 4.09L60.35 4.09L60.35 4.09Q61.53 4.09 62.42 4.55L62.42 4.55L62.42 4.55Q63.31 5.01 63.80 5.85L63.80 5.85L63.80 5.85Q64.29 6.69 64.29 7.78L64.29 7.78L64.29 10.42L64.29 10.42Q64.29 11.54 63.80 12.38L63.80 12.38L63.80 12.38Q63.31 13.23 62.42 13.70L62.42 13.70L62.42 13.70Q61.53 14.17 60.35 14.17L60.35 14.17ZM60.35 11.91L60.35 11.91Q60.94 11.91 61.30 11.53L61.30 11.53L61.30 11.53Q61.66 11.14 61.66 10.50L61.66 10.50L61.66 7.76L61.66 7.76Q61.66 7.11 61.30 6.73L61.30 6.73L61.30 6.73Q60.94 6.34 60.35 6.34L60.35 6.34L60.35 6.34Q59.78 6.34 59.42 6.73L59.42 6.73L59.42 6.73Q59.07 7.11 59.07 7.76L59.07 7.76L59.07 10.50L59.07 10.50Q59.07 11.14 59.42 11.53L59.42 11.53L59.42 11.53Q59.78 11.91 60.35 11.91L60.35 11.91Z"></path></g><!----><!----></svg>